<?xml version="1.0" encoding="UTF-8"?>
<!DOCTYPE svg PUBLIC "-//W3C//DTD SVG 1.1//EN" "http://www.w3.org/Graphics/SVG/1.1/DTD/svg11.dtd">
<svg xmlns="http://www.w3.org/2000/svg" version="1.1" width="152px" height="64px" style="shape-rendering:geometricPrecision; text-rendering:geometricPrecision; image-rendering:optimizeQuality; fill-rule:evenodd; clip-rule:evenodd" xmlns:xlink="http://www.w3.org/1999/xlink">
<g><path style="opacity:1" fill="#111011" d="M -0.5,-0.5 C 17.5,-0.5 35.5,-0.5 53.5,-0.5C 56.2268,3.3704 59.2268,7.03706 62.5,10.5C 61.2299,11.2876 60.2299,12.2876 59.5,13.5C 58.1667,13.5 56.8333,13.5 55.5,13.5C 56.6193,15.9376 56.6193,18.4376 55.5,21C 55.8333,22.1667 56.1667,23.3333 56.5,24.5C 57.1067,24.3764 57.44,24.0431 57.5,23.5C 58.3764,23.3691 59.0431,23.7025 59.5,24.5C 58.7542,25.7362 58.4208,27.0695 58.5,28.5C 59.552,28.3505 60.552,28.5172 61.5,29C 60.5399,30.4194 59.7065,31.9194 59,33.5C 57.3775,34.0989 55.8775,34.7656 54.5,35.5C 54.5,36.1667 54.5,36.8333 54.5,37.5C 52.8333,37.5 51.1667,37.5 49.5,37.5C 49.2267,35.549 49.8934,34.049 51.5,33C 50.7069,31.9148 50.0402,30.7481 49.5,29.5C 50.5202,27.5675 50.6869,25.5675 50,23.5C 49.8871,25.9739 48.8871,27.9739 47,29.5C 46.6827,27.6992 46.016,27.3659 45,28.5C 44.4054,29.8989 44.5721,31.2322 45.5,32.5C 44.8333,32.8333 44.1667,33.1667 43.5,33.5C 40.5804,32.4144 37.5804,31.7477 34.5,31.5C 32.8356,30.0512 32.0023,28.0512 32,25.5C 28.9529,26.3618 26.1195,26.3618 23.5,25.5C 24.7224,27.9783 26.7224,28.9783 29.5,28.5C 29.5,29.5 29.5,30.5 29.5,31.5C 27.9557,31.2969 26.6223,30.6302 25.5,29.5C 24.2888,30.2739 24.2888,31.1072 25.5,32C 23.6266,33.7038 21.9599,35.5372 20.5,37.5C 20.8841,39.6648 20.2174,41.3315 18.5,42.5C 17.0333,42.277 15.5333,41.9437 14,41.5C 13.3333,40.1667 13.3333,38.8333 14,37.5C 14.7096,38.9733 15.8762,39.6399 17.5,39.5C 16.551,37.2627 15.8844,34.9294 15.5,32.5C 10.9179,32.3158 6.75126,30.9824 3,28.5C 2.30762,29.0253 1.80762,29.6919 1.5,30.5C 2.83333,31.1667 4.16667,31.8333 5.5,32.5C 3.63787,34.2083 2.13787,36.2083 1,38.5C 1.14068,40.4623 0.974018,42.2957 0.5,44C 1.07624,45.7144 2.2429,46.8811 4,47.5C 3.83333,51.3333 5.66667,53.1667 9.5,53C 6.57521,55.4534 3.24187,56.9534 -0.5,57.5C -0.5,38.1667 -0.5,18.8333 -0.5,-0.5 Z"/></g>
<g><path style="opacity:1" fill="#110f0e" d="M 136.5,-0.5 C 141.5,-0.5 146.5,-0.5 151.5,-0.5C 151.5,20.8333 151.5,42.1667 151.5,63.5C 129.833,63.5 108.167,63.5 86.5,63.5C 86.5,62.5 86.5,61.5 86.5,60.5C 88.5273,60.6621 90.5273,60.4955 92.5,60C 91.2888,59.1072 91.2888,58.2739 92.5,57.5C 93.213,59.435 94.213,59.7683 95.5,58.5C 99.122,58.9591 102.622,60.2924 106,62.5C 106.349,61.5275 107.182,60.6942 108.5,60C 110.788,59.1779 113.122,58.5112 115.5,58C 117.576,56.1159 117.91,53.9492 116.5,51.5C 114.535,50.8096 112.202,50.1429 109.5,49.5C 109.5,48.5 109.5,47.5 109.5,46.5C 113.266,46.4274 114.599,44.7607 113.5,41.5C 114.932,38.6727 115.599,35.6727 115.5,32.5C 116.708,33.2341 118.041,33.5674 119.5,33.5C 121.912,33.6941 122.912,35.0274 122.5,37.5C 123.675,37.719 124.675,37.3857 125.5,36.5C 123.429,35.0241 122.429,33.0241 122.5,30.5C 125.549,29.6426 128.549,29.6426 131.5,30.5C 134.147,28.8159 136.813,27.1492 139.5,25.5C 135.636,24.05 135.636,22.55 139.5,21C 138.567,17.7409 138.567,14.2409 139.5,10.5C 140.478,10.9767 141.311,11.6433 142,12.5C 142.833,11 144,9.83333 145.5,9C 143.888,8.27969 142.388,8.44636 141,9.5C 140.517,8.55198 140.351,7.55198 140.5,6.5C 135.813,6.08384 134.479,3.75051 136.5,-0.5 Z"/></g>
<g><path style="opacity:1" fill="#505254" d="M 78.5,-0.5 C 83.1667,-0.5 87.8333,-0.5 92.5,-0.5C 92.1667,0.166667 91.8333,0.833333 91.5,1.5C 90.2209,2.96799 88.5542,3.63466 86.5,3.5C 85.8333,6.5 85.1667,9.5 84.5,12.5C 82.5,12.1667 80.5,11.8333 78.5,11.5C 78.5,7.5 78.5,3.5 78.5,-0.5 Z"/></g>
<g><path style="opacity:1" fill="#98d404" d="M 89.5,13.5 C 93.5803,13.0807 95.5803,14.914 95.5,19C 95.418,23.5748 93.0847,25.4081 88.5,24.5C 88.185,20.6286 88.5184,16.9619 89.5,13.5 Z"/></g>
<g><path style="opacity:1" fill="#97d00f" d="M 59.5,13.5 C 60.9778,13.238 62.3112,13.5713 63.5,14.5C 56.9724,15.4835 56.9724,16.6502 63.5,18C 59.7296,17.9381 57.7296,19.7714 57.5,23.5C 57.44,24.0431 57.1067,24.3764 56.5,24.5C 56.1667,23.3333 55.8333,22.1667 55.5,21C 56.6193,18.4376 56.6193,15.9376 55.5,13.5C 56.8333,13.5 58.1667,13.5 59.5,13.5 Z"/></g>
<g><path style="opacity:1" fill="#1d210f" d="M 89.5,15.5 C 90.3764,15.3691 91.0431,15.7025 91.5,16.5C 89.9929,20.3548 89.3262,20.0214 89.5,15.5 Z"/></g>
<g><path style="opacity:1" fill="#161412" d="M 92.5,-0.5 C 107.167,-0.5 121.833,-0.5 136.5,-0.5C 134.479,3.75051 135.813,6.08384 140.5,6.5C 140.351,7.55198 140.517,8.55198 141,9.5C 142.388,8.44636 143.888,8.27969 145.5,9C 144,9.83333 142.833,11 142,12.5C 141.311,11.6433 140.478,10.9767 139.5,10.5C 138.567,14.2409 138.567,17.7409 139.5,21C 135.636,22.55 135.636,24.05 139.5,25.5C 136.813,27.1492 134.147,28.8159 131.5,30.5C 128.549,29.6426 125.549,29.6426 122.5,30.5C 122.429,33.0241 123.429,35.0241 125.5,36.5C 124.675,37.3857 123.675,37.719 122.5,37.5C 122.912,35.0274 121.912,33.6941 119.5,33.5C 118.524,32.1851 117.524,30.8518 116.5,29.5C 118.924,27.2864 118.257,26.2864 114.5,26.5C 114.812,29.8884 113.479,32.3884 110.5,34C 112.282,34.1218 113.948,33.6218 115.5,32.5C 115.599,35.6727 114.932,38.6727 113.5,41.5C 114.599,44.7607 113.266,46.4274 109.5,46.5C 109.5,47.5 109.5,48.5 109.5,49.5C 112.202,50.1429 114.535,50.8096 116.5,51.5C 117.91,53.9492 117.576,56.1159 115.5,58C 113.122,58.5112 110.788,59.1779 108.5,60C 107.182,60.6942 106.349,61.5275 106,62.5C 102.622,60.2924 99.122,58.9591 95.5,58.5C 96.4558,57.3406 97.4558,56.1739 98.5,55C 97.7665,53.2341 97.4332,51.4008 97.5,49.5C 101.823,49.6043 105.156,47.9376 107.5,44.5C 110.177,46.1656 111.844,45.499 112.5,42.5C 110.689,40.1882 108.689,38.0216 106.5,36C 107.52,32.8107 106.186,30.9774 102.5,30.5C 99.8282,31.8359 97.1615,33.1692 94.5,34.5C 92.3344,34.5704 92.0011,33.9038 93.5,32.5C 91.6961,30.0201 89.3627,28.3535 86.5,27.5C 86.5,25.5 86.5,23.5 86.5,21.5C 86.5,19.8333 86.5,18.1667 86.5,16.5C 87.1667,19.1667 87.8333,21.8333 88.5,24.5C 93.0847,25.4081 95.418,23.5748 95.5,19C 95.5803,14.914 93.5803,13.0807 89.5,13.5C 89.1826,10.4281 89.5159,7.42814 90.5,4.5C 91.5,4 92.5,3.5 93.5,3C 92.5842,2.72158 91.9175,2.22158 91.5,1.5C 91.8333,0.833333 92.1667,0.166667 92.5,-0.5 Z"/></g>
<g><path style="opacity:1" fill="#1f2310" d="M 92.5,16.5 C 95.2088,19.009 94.8755,21.3424 91.5,23.5C 91.1667,23.1667 90.8333,22.8333 90.5,22.5C 91.7472,20.677 92.4139,18.677 92.5,16.5 Z"/></g>
<g><path style="opacity:1" fill="#3f5114" d="M 34.5,31.5 C 34.5299,32.4972 34.0299,33.1639 33,33.5C 31.6974,33.0217 30.5307,32.355 29.5,31.5C 29.5,30.5 29.5,29.5 29.5,28.5C 26.7224,28.9783 24.7224,27.9783 23.5,25.5C 26.1195,26.3618 28.9529,26.3618 32,25.5C 32.0023,28.0512 32.8356,30.0512 34.5,31.5 Z"/></g>
<g><path style="opacity:1" fill="#4c6210" d="M 119.5,33.5 C 118.041,33.5674 116.708,33.2341 115.5,32.5C 113.948,33.6218 112.282,34.1218 110.5,34C 113.479,32.3884 114.812,29.8884 114.5,26.5C 118.257,26.2864 118.924,27.2864 116.5,29.5C 117.524,30.8518 118.524,32.1851 119.5,33.5 Z"/></g>
<g><path style="opacity:1" fill="#0b0b0a" d="M 20.5,37.5 C 22.144,36.6343 23.8107,36.1343 25.5,36C 22.7601,38.9789 22.9267,41.8122 26,44.5C 26.4828,43.552 26.6495,42.552 26.5,41.5C 29.8333,41.5 31.5,39.8333 31.5,36.5C 34.6492,36.2114 37.6492,36.7114 40.5,38C 39.6919,38.3076 39.0253,38.8076 38.5,39.5C 41.2474,42.239 43.5808,45.239 45.5,48.5C 46.5942,50.3594 47.4275,52.3594 48,54.5C 51.0657,57.3957 53.8991,60.3957 56.5,63.5C 37.5,63.5 18.5,63.5 -0.5,63.5C -0.5,61.5 -0.5,59.5 -0.5,57.5C 3.24187,56.9534 6.57521,55.4534 9.5,53C 5.66667,53.1667 3.83333,51.3333 4,47.5C 2.2429,46.8811 1.07624,45.7144 0.5,44C 0.974018,42.2957 1.14068,40.4623 1,38.5C 2.13787,36.2083 3.63787,34.2083 5.5,32.5C 4.16667,31.8333 2.83333,31.1667 1.5,30.5C 1.80762,29.6919 2.30762,29.0253 3,28.5C 6.75126,30.9824 10.9179,32.3158 15.5,32.5C 15.8844,34.9294 16.551,37.2627 17.5,39.5C 15.8762,39.6399 14.7096,38.9733 14,37.5C 13.3333,38.8333 13.3333,40.1667 14,41.5C 15.5333,41.9437 17.0333,42.277 18.5,42.5C 20.2174,41.3315 20.8841,39.6648 20.5,37.5 Z"/></g>
<g><path style="opacity:1" fill="#88bb0c" d="M 84.5,35.5 C 85.8004,39.0961 86.8004,42.7627 87.5,46.5C 83.1667,46.5 78.8333,46.5 74.5,46.5C 74.5,45.5 74.5,44.5 74.5,43.5C 76.0198,41.1098 77.0198,38.4432 77.5,35.5C 79.1238,35.3601 80.2904,36.0267 81,37.5C 81.7096,36.0267 82.8762,35.3601 84.5,35.5 Z"/></g>
<g><path style="opacity:1" fill="#171710" d="M 82.5,37.5 C 84.428,39.6006 85.0947,41.9339 84.5,44.5C 83.914,44.2907 83.414,43.9574 83,43.5C 82.5045,41.5273 82.3379,39.5273 82.5,37.5 Z"/></g>
<g><path style="opacity:1" fill="#282a1f" d="M 78.5,37.5 C 81.0914,40.0617 80.7581,42.395 77.5,44.5C 77.1667,44.1667 76.8333,43.8333 76.5,43.5C 77.3721,41.5504 78.0388,39.5504 78.5,37.5 Z"/></g>
<g><path style="opacity:1" fill="#2f2f2e" d="M 53.5,-0.5 C 61.8333,-0.5 70.1667,-0.5 78.5,-0.5C 78.5,3.5 78.5,7.5 78.5,11.5C 80.5,11.8333 82.5,12.1667 84.5,12.5C 85.1667,9.5 85.8333,6.5 86.5,3.5C 88.5542,3.63466 90.2209,2.96799 91.5,1.5C 91.9175,2.22158 92.5842,2.72158 93.5,3C 92.5,3.5 91.5,4 90.5,4.5C 89.5159,7.42814 89.1826,10.4281 89.5,13.5C 88.5184,16.9619 88.185,20.6286 88.5,24.5C 87.8333,21.8333 87.1667,19.1667 86.5,16.5C 81.4614,11.9257 78.128,12.9257 76.5,19.5C 76.6233,20.9245 76.9566,22.2579 77.5,23.5C 77.4914,25.3084 77.9914,26.9751 79,28.5C 79.3333,28.1667 79.6667,27.8333 80,27.5C 80.8536,30.5924 82.3536,33.2591 84.5,35.5C 82.8762,35.3601 81.7096,36.0267 81,37.5C 80.2904,36.0267 79.1238,35.3601 77.5,35.5C 77.0198,38.4432 76.0198,41.1098 74.5,43.5C 73.8333,43.5 73.1667,43.5 72.5,43.5C 72.8134,40.7531 72.48,38.0865 71.5,35.5C 71.1667,37.3333 70.8333,39.1667 70.5,41C 70.5465,43.2953 71.2132,45.1286 72.5,46.5C 74.1946,49.8128 73.1946,51.8128 69.5,52.5C 69.6168,54.4835 68.9501,56.1502 67.5,57.5C 65.2981,55.3717 62.9647,53.3717 60.5,51.5C 58.9446,51.722 57.6113,52.3887 56.5,53.5C 53.0531,51.31 49.3865,49.6434 45.5,48.5C 43.5808,45.239 41.2474,42.239 38.5,39.5C 39.0253,38.8076 39.6919,38.3076 40.5,38C 37.6492,36.7114 34.6492,36.2114 31.5,36.5C 31.5,39.8333 29.8333,41.5 26.5,41.5C 26.6495,42.552 26.4828,43.552 26,44.5C 22.9267,41.8122 22.7601,38.9789 25.5,36C 23.8107,36.1343 22.144,36.6343 20.5,37.5C 21.9599,35.5372 23.6266,33.7038 25.5,32C 24.2888,31.1072 24.2888,30.2739 25.5,29.5C 26.6223,30.6302 27.9557,31.2969 29.5,31.5C 30.5307,32.355 31.6974,33.0217 33,33.5C 34.0299,33.1639 34.5299,32.4972 34.5,31.5C 37.5804,31.7477 40.5804,32.4144 43.5,33.5C 44.1667,33.1667 44.8333,32.8333 45.5,32.5C 44.5721,31.2322 44.4054,29.8989 45,28.5C 46.016,27.3659 46.6827,27.6992 47,29.5C 48.8871,27.9739 49.8871,25.9739 50,23.5C 50.6869,25.5675 50.5202,27.5675 49.5,29.5C 50.0402,30.7481 50.7069,31.9148 51.5,33C 49.8934,34.049 49.2267,35.549 49.5,37.5C 51.1667,37.5 52.8333,37.5 54.5,37.5C 54.1826,40.5719 54.5159,43.5719 55.5,46.5C 56.4887,44.4138 57.822,42.7471 59.5,41.5C 61.5969,40.1214 61.9302,38.4547 60.5,36.5C 58.6208,35.6586 56.6208,35.3253 54.5,35.5C 55.8775,34.7656 57.3775,34.0989 59,33.5C 59.7065,31.9194 60.5399,30.4194 61.5,29C 60.552,28.5172 59.552,28.3505 58.5,28.5C 58.4208,27.0695 58.7542,25.7362 59.5,24.5C 59.0431,23.7025 58.3764,23.3691 57.5,23.5C 57.7296,19.7714 59.7296,17.9381 63.5,18C 56.9724,16.6502 56.9724,15.4835 63.5,14.5C 62.3112,13.5713 60.9778,13.238 59.5,13.5C 60.2299,12.2876 61.2299,11.2876 62.5,10.5C 59.2268,7.03706 56.2268,3.3704 53.5,-0.5 Z"/></g>
<g><path style="opacity:1" fill="#96d00f" d="M 62.5,35.5 C 64.7925,35.2436 66.9592,35.5769 69,36.5C 68.1448,39.8575 67.6448,43.1908 67.5,46.5C 66.1667,43.8333 64.8333,43.8333 63.5,46.5C 62.5108,42.8927 62.1774,39.226 62.5,35.5 Z"/></g>
<g><path style="opacity:1" fill="#5c7520" d="M 63.5,36.5 C 64.5862,36.62 65.2528,37.2867 65.5,38.5C 65.1667,39.1667 64.8333,39.8333 64.5,40.5C 63.5713,39.3112 63.238,37.9778 63.5,36.5 Z"/></g>
<g><path style="opacity:1" fill="#63831a" d="M 60.5,36.5 C 61.9302,38.4547 61.5969,40.1214 59.5,41.5C 58.8813,38.4046 57.8813,38.0712 56.5,40.5C 55.5713,39.3112 55.238,37.9778 55.5,36.5C 57.398,37.0965 59.0646,37.0965 60.5,36.5 Z"/></g>
<g><path style="opacity:1" fill="#abee07" d="M 54.5,35.5 C 56.6208,35.3253 58.6208,35.6586 60.5,36.5C 59.0646,37.0965 57.398,37.0965 55.5,36.5C 55.238,37.9778 55.5713,39.3112 56.5,40.5C 57.8813,38.0712 58.8813,38.4046 59.5,41.5C 57.822,42.7471 56.4887,44.4138 55.5,46.5C 54.5159,43.5719 54.1826,40.5719 54.5,37.5C 54.5,36.8333 54.5,36.1667 54.5,35.5 Z"/></g>
<g><path style="opacity:1" fill="#97cf15" d="M 67.5,13.5 C 74.5701,14.4067 76.2368,17.9067 72.5,24C 66,25.5 63.5,23 65,16.5C 66.045,15.6266 66.8783,14.6266 67.5,13.5 Z"/></g>
<g><path style="opacity:1" fill="#43463e" d="M 67.5,15.5 C 72.2137,15.2008 73.8804,17.2008 72.5,21.5C 66.0332,23.2036 64.3666,21.2036 67.5,15.5 Z"/></g>
<g><path style="opacity:1" fill="#a0d917" d="M 68.5,18.5 C 70.337,18.6395 70.6704,19.3061 69.5,20.5C 68.7025,20.0431 68.3691,19.3764 68.5,18.5 Z"/></g>
<g><path style="opacity:1" fill="#95ce0c" d="M 86.5,16.5 C 86.5,18.1667 86.5,19.8333 86.5,21.5C 84.056,24.4563 81.056,25.123 77.5,23.5C 76.9566,22.2579 76.6233,20.9245 76.5,19.5C 78.128,12.9257 81.4614,11.9257 86.5,16.5 Z"/></g>
<g><path style="opacity:1" fill="#292b21" d="M 79.5,15.5 C 85.0159,15.4734 86.3492,17.64 83.5,22C 77.3389,22.878 76.0055,20.7113 79.5,15.5 Z"/></g>
<g><path style="opacity:1" fill="#8ec407" d="M 80.5,18.5 C 82.337,18.6395 82.6704,19.3061 81.5,20.5C 80.7025,20.0431 80.3691,19.3764 80.5,18.5 Z"/></g>
<g><path style="opacity:1" fill="#81b011" d="M 72.5,43.5 C 72.5,44.5 72.5,45.5 72.5,46.5C 71.2132,45.1286 70.5465,43.2953 70.5,41C 70.8333,39.1667 71.1667,37.3333 71.5,35.5C 72.48,38.0865 72.8134,40.7531 72.5,43.5 Z"/></g>
<g><path style="opacity:1" fill="#1f1d1b" d="M 86.5,21.5 C 86.5,23.5 86.5,25.5 86.5,27.5C 89.3627,28.3535 91.6961,30.0201 93.5,32.5C 92.0011,33.9038 92.3344,34.5704 94.5,34.5C 97.1615,33.1692 99.8282,31.8359 102.5,30.5C 106.186,30.9774 107.52,32.8107 106.5,36C 108.689,38.0216 110.689,40.1882 112.5,42.5C 111.844,45.499 110.177,46.1656 107.5,44.5C 105.156,47.9376 101.823,49.6043 97.5,49.5C 97.4332,51.4008 97.7665,53.2341 98.5,55C 97.4558,56.1739 96.4558,57.3406 95.5,58.5C 94.213,59.7683 93.213,59.435 92.5,57.5C 91.2888,58.2739 91.2888,59.1072 92.5,60C 90.5273,60.4955 88.5273,60.6621 86.5,60.5C 86.5,61.5 86.5,62.5 86.5,63.5C 76.5,63.5 66.5,63.5 56.5,63.5C 53.8991,60.3957 51.0657,57.3957 48,54.5C 47.4275,52.3594 46.5942,50.3594 45.5,48.5C 49.3865,49.6434 53.0531,51.31 56.5,53.5C 57.6113,52.3887 58.9446,51.722 60.5,51.5C 62.9647,53.3717 65.2981,55.3717 67.5,57.5C 68.9501,56.1502 69.6168,54.4835 69.5,52.5C 73.1946,51.8128 74.1946,49.8128 72.5,46.5C 72.5,45.5 72.5,44.5 72.5,43.5C 73.1667,43.5 73.8333,43.5 74.5,43.5C 74.5,44.5 74.5,45.5 74.5,46.5C 78.8333,46.5 83.1667,46.5 87.5,46.5C 86.8004,42.7627 85.8004,39.0961 84.5,35.5C 82.3536,33.2591 80.8536,30.5924 80,27.5C 79.6667,27.8333 79.3333,28.1667 79,28.5C 77.9914,26.9751 77.4914,25.3084 77.5,23.5C 81.056,25.123 84.056,24.4563 86.5,21.5 Z"/></g>
<g><path style="opacity:1" fill="#89be07" d="M 89.5,35.5 C 92.1873,35.3359 94.854,35.5026 97.5,36C 89.7691,36.4672 89.7691,37.6338 97.5,39.5C 96.3112,40.4287 94.9778,40.762 93.5,40.5C 93.67,41.8221 93.3366,42.9887 92.5,44C 94.2556,44.2022 95.9223,44.7022 97.5,45.5C 94.9135,46.48 92.2469,46.8134 89.5,46.5C 89.5,42.8333 89.5,39.1667 89.5,35.5 Z"/></g>
</svg>
